HIERARCHY
ROOT pelvis
{
	OFFSET 0.000000 0.000000 0.000000
	CHANNELS 6 Xposition Yposition Zposition Zrotation Xrotation Yrotation
	JOINT lfemur
	{
		OFFSET 11.446000 0.000000 0.000000
		CHANNELS 3 Zrotation Xrotation Yrotation
		JOINT ltibia
		{
			OFFSET 0.000000 -42.030400 0.000000
			CHANNELS 3 Zrotation Xrotation Yrotation
			JOINT lfoot
			{
				OFFSET 0.000000 -39.930200 0.000000
				CHANNELS 3 Zrotation Xrotation Yrotation
				JOINT ltoes
				{
					OFFSET 0.000000 0.000000 11.775800
					CHANNELS 3 Zrotation Xrotation Yrotation
					End Site
					{
					    OFFSET 0.000000 0.000000 5.000000
					}
				}
			}
		}
	}
	JOINT rfemur
	{
		OFFSET -11.446000 0.000000 0.000000
		CHANNELS 3 Zrotation Xrotation Yrotation
		JOINT rtibia
		{
			OFFSET 0.000000 -42.030400 0.000000
			CHANNELS 3 Zrotation Xrotation Yrotation
			JOINT rfoot
			{
				OFFSET 0.000000 -39.930200 0.000000
				CHANNELS 3 Zrotation Xrotation Yrotation
				JOINT rtoes
				{
					OFFSET 0.000000 0.000000 11.775800
					CHANNELS 3 Zrotation Xrotation Yrotation
					End Site
					{
					    OFFSET 0.000000 0.000000 5.000000
					}
				}
			}
		}
	}
	JOINT thorax
	{
		OFFSET 0.000000 11.255600 -5.000000
		CHANNELS 3 Zrotation Xrotation Yrotation
		JOINT head
		{
			OFFSET 0.000000 43.799300 0.000000
			CHANNELS 3 Zrotation Xrotation Yrotation
			End Site
			{
			    OFFSET 0.000000 5.000000 0.000000
			}
		}
		JOINT lclavicle
		{
			OFFSET 0.000000 39.863000 0.000000
			CHANNELS 3 Zrotation Xrotation Yrotation
			JOINT lhumerus
			{
				OFFSET 17.380600 4.958300 0.000000
				CHANNELS 3 Zrotation Xrotation Yrotation
				JOINT lradius
				{
					OFFSET 0.000000 -27.561300 0.000000
					CHANNELS 3 Zrotation Xrotation Yrotation
					JOINT lhand
					{
						OFFSET 0.000000 -26.933000 0.000000
						CHANNELS 3 Zrotation Xrotation Yrotation
						End Site
						{
						    OFFSET 0.000000 -5.000000 0.000000
						}
					}
				}
			}
		}
		JOINT rclavicle
		{
			OFFSET 0.000000 39.863000 0.000000
			CHANNELS 3 Zrotation Xrotation Yrotation
			JOINT rhumerus
			{
				OFFSET -17.380600 4.958300 0.000000
				CHANNELS 3 Zrotation Xrotation Yrotation
				JOINT rradius
				{
					OFFSET 0.000000 -27.561300 0.000000
					CHANNELS 3 Zrotation Xrotation Yrotation
					JOINT rhand
					{
						OFFSET 0.000000 -26.933000 0.000000
						CHANNELS 3 Zrotation Xrotation Yrotation
						End Site
						{
						    OFFSET 0.000000 -5.000000 0.000000
						}
					}
				}
			}
		}
	}
}
MOTION
Frames: 18
Frame Time:	0.0333333
56.362800 85.354600 8.479600 7.577645 -1.408825 -92.415207 -5.686986 -27.146704 -4.098178 -0.000000 33.961675 -0.000000 -0.000000 2.600536 4.221694 0.000000 -1.377225 -0.000000 1.541767 -29.753521 3.258471 -0.000000 29.597227 0.000000 -0.000000 7.040547 2.751214 -0.000000 -29.544362 0.000000 -4.498737 15.000673 -0.715522 13.782161 23.549824 8.501963 -15.999608 0.000000 -2.263431 24.214104 -15.453934 -18.407156 0.000006 -45.256991 -45.851885 9.388775 -9.580824 -0.000000 22.257447 -0.000000 4.067545 -26.666718 -12.516357 19.045201 0.000005 -52.250034 24.921574 2.817427 -4.408525 0.000000 
57.018800 85.609300 8.561200 7.621547 -1.438125 -92.955895 -4.830881 -27.557306 -1.643877 0.000000 33.568461 0.000000 -0.000000 4.098513 2.731532 -0.000000 -1.374794 -0.000000 1.634547 -28.589657 2.348646 -0.000000 29.814752 -0.000000 -0.000000 3.476725 -0.575827 0.000000 -29.537050 -0.000000 -4.767008 14.609816 -0.759312 13.929741 23.699374 9.103071 -15.912870 -0.000000 -2.426664 25.909427 -12.001305 -13.961832 -0.000004 -41.096034 -44.504982 10.258028 -8.622243 0.000000 22.730628 0.000000 3.988935 -27.165208 -12.394498 17.006709 -0.000001 -49.414401 26.259864 3.887975 -4.768260 0.000000 
57.773800 85.783500 8.571600 7.423234 -1.371149 -92.571168 -4.742047 -27.792596 -1.173831 0.000000 33.092222 0.000000 0.000000 5.661780 2.195161 -0.000000 -1.368856 -0.000000 1.123151 -27.257671 -0.233405 -0.000000 35.241635 0.000000 -0.000000 -0.261156 -1.662782 -0.000000 -29.540113 0.000000 -4.694001 14.552713 -0.755895 14.410655 23.831239 8.595708 -16.322257 -0.000000 -2.454071 27.772873 -8.061938 -8.779447 -0.000001 -36.404128 -45.661620 10.635430 -7.898041 -0.000000 22.779109 -0.000000 4.422550 -27.830084 -11.439197 13.647207 -0.000001 -46.427366 27.365314 3.620870 -4.677957 0.000000 
58.545600 85.782700 8.483200 7.239499 -1.461632 -92.284924 -5.173434 -27.939198 -1.887784 -0.000000 32.572954 -0.000000 0.000000 6.480945 3.069157 -0.000000 -1.352334 0.000000 0.462446 -25.269860 -1.492412 -0.000000 42.780018 0.000000 -0.000000 -3.276559 -2.313063 -0.000000 -29.544707 -0.000000 -4.778953 14.176475 -0.364603 14.982192 24.349798 7.634236 -17.148683 -0.000000 -1.889765 30.037344 -3.074481 -4.111968 -0.000001 -31.741016 -45.459872 11.567452 -7.064716 -0.000000 22.762831 0.000000 4.724202 -28.745682 -10.376550 10.597144 0.000001 -42.817227 27.719635 3.101477 -4.499979 0.000000 
59.403400 85.678200 8.239800 7.299253 -1.520912 -92.219099 -5.256147 -28.949629 -1.826193 0.000000 33.068344 0.000000 -0.000000 7.390613 3.519913 0.000000 -1.329020 0.000000 -0.193727 -22.126041 -2.188742 -0.000000 48.920414 -0.000000 0.000000 -5.046393 -4.155044 -0.000000 -29.539779 -0.000000 -4.910050 13.456201 0.346942 15.541518 24.947914 6.850587 -18.074686 -0.000000 -0.723201 32.535855 3.085984 0.264994 -0.000001 -27.560222 -44.750323 10.815415 -6.330996 0.000000 22.908535 -0.000000 5.086115 -29.825958 -9.081643 7.412513 0.000001 -38.955822 30.360018 3.092585 -4.493071 -0.000000 
60.315200 85.486000 8.022900 7.293706 -2.047265 -92.323500 -5.607027 -30.548522 -1.352541 -0.000000 34.703901 -0.000000 0.000000 8.743422 3.492681 -0.000000 -1.325612 -0.000000 -1.833735 -17.896639 -2.919854 0.000000 52.709189 -0.000000 -0.000000 -4.754829 -4.644019 -0.000000 -29.534318 0.000000 -5.498178 12.844199 1.260588 16.300788 25.200860 5.734355 -18.950360 -0.000000 1.172791 35.270608 9.347276 3.093740 0.000001 -23.183682 -44.334960 8.415183 -6.188249 0.000000 23.041307 0.000000 5.554081 -31.179386 -7.506463 4.347531 -0.000001 -35.528486 32.186971 3.843081 -4.745121 0.000000 
61.499700 85.158100 7.702500 7.514893 -2.324820 -92.676945 -5.490288 -32.554952 -1.627416 0.000000 36.451976 -0.000000 -0.000000 9.657545 3.303009 0.000000 -1.336910 -0.000000 -3.430013 -13.492465 -3.164240 0.000000 54.003964 -0.000000 -0.000000 -3.827647 -3.813728 -0.000000 -29.542074 -0.000000 -5.723197 12.108890 2.442291 16.674065 25.519206 4.975658 -19.591464 -0.000000 2.740869 37.322593 15.920401 8.187886 -0.000001 -18.447289 -45.740659 6.503626 -6.013691 -0.000000 23.282252 0.000000 6.195897 -32.805354 -5.355111 1.492040 0.000002 -33.277743 33.556259 4.095535 -4.830298 0.000000 
62.967700 84.778600 7.374100 7.854069 -2.390981 -93.347818 -4.911203 -34.728613 -1.762677 -0.000000 37.965539 0.000000 -0.000000 10.596070 2.841964 -0.000000 -1.346521 -0.000000 -4.900539 -9.189565 -2.980442 -0.000000 51.834600 0.000000 0.000000 -3.258166 -2.315811 -0.000000 -29.545748 -0.000000 -5.477337 11.469878 3.539843 16.521282 25.750126 4.764473 -19.788974 0.000000 4.459566 38.648011 21.932385 14.056434 0.000000 -13.809672 -47.363602 5.461571 -5.327644 -0.000000 23.363494 0.000000 6.419825 -34.192989 -3.687024 -0.835014 -0.000000 -31.798574 34.295381 3.534059 -4.639628 -0.000000 
64.760900 84.424200 6.994300 8.119034 -2.500088 -94.554159 -3.998775 -36.495200 -1.592177 0.000000 38.564202 -0.000000 0.000000 11.590701 2.724361 -0.000000 -1.367400 -0.000000 -6.384732 -5.375980 -2.406172 0.000000 45.949667 -0.000000 -0.000000 -2.644757 0.258378 0.000000 -29.554651 -0.000000 -5.114057 10.948871 4.713876 15.628218 26.319805 5.289263 -19.724759 -0.000000 5.528992 39.253403 27.366564 22.527048 0.000000 -8.813394 -52.006870 4.359520 -5.124515 0.000000 23.379439 -0.000000 6.772298 -35.334707 -2.073129 -3.136669 0.000002 -31.015315 33.954607 3.607519 -4.665564 -0.000000 
66.891000 84.095000 6.512500 8.085861 -2.454500 -96.195277 -2.585961 -37.874656 -1.104358 -0.000000 38.716266 0.000000 -0.000000 12.695535 3.096563 0.000000 -1.392398 -0.000000 -7.319600 -2.398536 -1.199075 -0.000000 37.945742 -0.000000 -0.000000 -2.082630 3.904019 -0.000000 -29.568298 -0.000000 -4.593466 10.731313 5.749801 14.224256 27.157177 6.496286 -19.451838 -0.000000 6.288783 39.108645 32.843574 25.555810 -0.000000 -5.922386 -53.811515 2.300546 -4.662047 0.000000 23.310489 -0.000000 6.963443 -36.092764 -0.927634 -4.584968 0.000001 -30.712295 33.616007 3.634853 -4.674294 -0.000000 
69.423700 83.729200 5.872500 7.904889 -2.573889 -97.657280 -1.256433 -38.989983 -0.712706 -0.000000 38.071014 0.000000 -0.000000 14.296318 3.523321 0.000000 -1.405897 0.000000 -8.037957 -1.061270 -0.499567 -0.000000 31.975670 -0.000000 -0.000000 -3.225299 7.886834 -0.000000 -29.585592 -0.000000 -4.271208 10.885095 6.304691 12.408453 27.866253 8.234554 -18.928274 0.000000 6.881107 37.946429 37.281910 27.263231 0.000000 -5.234417 -55.655529 -1.117535 -5.205224 -0.000000 23.140362 0.000000 6.849912 -36.442338 -0.572727 -4.980334 -0.000001 -30.982989 32.536822 4.332011 -4.908498 -0.000000 
72.401300 83.288700 5.146400 7.627704 -2.847700 -98.793771 -0.383684 -39.491914 -1.559983 0.000000 36.015161 0.000000 -0.000000 16.181179 4.330192 0.000000 -1.440881 -0.000000 -8.075385 -2.226809 -0.251758 -0.000000 31.519875 -0.000000 0.000000 -5.800255 9.481597 -0.000000 -29.592812 -0.000000 -4.005353 11.189355 6.558356 9.984690 28.804551 10.226705 -18.628133 -0.000000 7.113771 36.620098 40.038170 29.044690 -0.000000 -4.940560 -56.897725 -2.741225 -5.472829 -0.000000 22.647807 0.000000 6.985419 -36.215494 -0.315739 -5.098882 0.000000 -31.674487 31.810914 4.959207 -5.120087 -0.000000 
75.701400 82.939000 4.252600 7.086570 -3.192709 -99.346855 0.415997 -39.161052 -2.579363 -0.000000 32.265301 0.000000 -0.000000 19.272429 4.748993 -0.000000 -1.491053 0.000000 -7.671996 -4.664102 -1.692732 -0.000000 33.366458 -0.000000 -0.000000 -8.982454 8.976267 0.000000 -29.585794 -0.000000 -3.848754 12.302861 6.366560 7.262452 29.506196 12.575723 -18.959630 0.000000 7.217556 35.837848 40.493423 31.315725 0.000000 -5.181412 -55.437021 -2.170760 -5.409818 0.000000 21.964573 0.000000 7.275066 -35.933698 -0.714475 -4.296405 0.000000 -32.256552 30.839953 5.148260 -5.185258 0.000000 
79.403900 82.774900 3.215500 6.491664 -3.683663 -98.947998 1.189771 -38.679620 -2.692272 -0.000000 27.102053 -0.000000 -0.000000 25.146949 3.774242 -0.000000 -1.545238 -0.000000 -7.058445 -7.433689 -3.133720 -0.000000 35.634703 -0.000000 0.000000 -11.555780 7.222469 -0.000000 -29.578274 -0.000000 -4.238591 13.462229 5.828862 5.088142 30.014332 14.960594 -19.420331 -0.000000 7.568760 36.530574 38.532376 32.653683 -0.000000 -5.405631 -53.588034 -1.261709 -5.029076 0.000000 21.953475 -0.000000 7.153177 -35.745839 -1.318373 -3.756984 -0.000002 -32.456429 30.594718 4.713553 -5.039632 0.000000 
83.323000 82.834300 2.021600 6.728492 -3.954840 -97.313957 1.852333 -39.090023 -2.286681 -0.000000 21.354036 -0.000000 -0.000000 33.322565 1.300039 -0.000000 -1.587315 0.000000 -5.808153 -9.883461 -3.547398 0.000000 35.865570 -0.000000 0.000000 -13.302209 5.358209 0.000000 -29.569483 -0.000000 -4.519644 14.250245 4.943962 3.874561 30.144465 17.028921 -19.513055 -0.000000 7.297142 37.203378 34.661571 31.845098 0.000000 -6.296547 -50.790793 -0.719618 -4.757001 -0.000000 22.238532 -0.000000 6.642506 -35.661514 -1.927048 -3.328676 -0.000002 -32.807536 30.432198 4.216926 -4.871662 0.000000 
86.910400 82.920500 1.125100 6.727314 -4.072469 -95.110640 0.806611 -39.353438 -4.369336 -0.000000 20.421595 -0.000000 0.000000 29.693186 0.157046 -0.000000 -1.549812 -0.000000 -5.300973 -11.443717 -5.845145 -0.000000 35.282111 -0.000000 -0.000000 -14.584076 4.690530 -0.000000 -29.559060 -0.000000 -4.417276 15.040105 4.111650 3.128194 30.223182 18.331865 -19.627969 0.000000 6.498924 37.557161 30.160955 30.074792 0.000000 -8.045715 -49.906834 -0.445689 -5.126604 -0.000000 22.299211 -0.000000 6.155913 -35.734930 -1.248287 -3.473284 -0.000002 -33.449938 30.131303 3.016627 -4.466600 0.000000 
90.292200 83.196600 0.402100 6.711978 -3.737391 -93.396079 -0.864776 -39.934598 -6.717665 -0.000000 25.720126 -0.000000 0.000000 19.644029 3.765156 -0.000000 -1.530958 -0.000000 -4.678927 -13.910502 -7.461348 -0.000000 36.241821 -0.000000 0.000000 -13.449637 4.494058 0.000000 -29.555809 -0.000000 -3.817785 15.913312 3.471563 2.644151 30.298891 19.175087 -20.573503 0.000000 6.023337 38.070400 24.313071 26.081373 0.000000 -10.216525 -46.946298 0.835521 -5.417264 -0.000000 22.349801 -0.000000 6.383309 -36.367715 -0.308735 -3.321259 0.000000 -33.145138 29.079008 2.654981 -4.345719 -0.000000 
93.558700 83.738200 -0.158300 6.859030 -4.070021 -92.164833 -3.395475 -39.637174 -7.370573 -0.000000 32.902729 0.000000 -0.000000 13.420977 7.837613 -0.000000 -1.503808 -0.000000 -5.035241 -16.594215 -9.163560 -0.000000 36.992445 -0.000000 0.000000 -11.494840 4.780620 -0.000000 -29.553132 -0.000000 -4.323346 16.264247 3.329938 2.755662 30.358962 19.658250 -21.284459 0.000000 5.929978 38.447603 17.102466 20.560583 -0.000000 -11.665182 -45.844701 3.081902 -4.637378 -0.000000 22.276689 -0.000000 6.571477 -36.371465 0.673858 -4.197036 0.000002 -32.086610 29.298165 3.251772 -4.544117 -0.000000 
